<svg width="512" height="512" viewBox="0 0 512 512" fill="none" xmlns="http://www.w3.org/2000/svg">
<mask id="path-1-outside-1_58_55" maskUnits="userSpaceOnUse" x="38" y="59" width="436" height="394" fill="black">
<rect fill="white" x="38" y="59" width="436" height="394"/>
<path fill-rule="evenodd" clip-rule="evenodd" d="M222.735 182.183C217.7 181.916 215.495 180.419 212.068 176.809L212.031 176.753L156.298 93.5232C155.449 92.2551 154.023 91.4941 152.497 91.4941H75.1273C71.4698 91.4941 69.2916 95.5741 71.3267 98.6132L193.592 281.201L330.786 76.5416C337.297 66.8286 348.222 61 359.915 61H437.275C465.324 61 482.022 92.2961 466.404 115.595L251.765 435.783C245.253 445.496 234.329 451.324 222.636 451.324H145.276C117.227 451.324 100.529 420.028 116.147 396.729L175.232 308.589L45.9887 115.58C30.3865 92.2802 47.0861 61 75.1273 61H152.497C164.197 61 175.126 66.8348 181.636 76.5563L237.503 159.988L237.545 160.05C239.532 164.093 240.037 166.351 238.357 172.122C236.884 175.293 234.347 177.697 231.863 179.279C229.369 180.868 226.158 182.121 222.735 182.183ZM359.915 91.4941C358.39 91.4941 356.965 92.2543 356.116 93.5213L141.477 413.709C139.439 416.748 141.617 420.83 145.276 420.83H222.636C224.161 420.83 225.586 420.07 226.435 418.803L441.074 98.6151C443.112 95.5762 440.934 91.4941 437.275 91.4941H359.915Z"/>
</mask>
<path fill-rule="evenodd" clip-rule="evenodd" d="M222.735 182.183C217.7 181.916 215.495 180.419 212.068 176.809L212.031 176.753L156.298 93.5232C155.449 92.2551 154.023 91.4941 152.497 91.4941H75.1273C71.4698 91.4941 69.2916 95.5741 71.3267 98.6132L193.592 281.201L330.786 76.5416C337.297 66.8286 348.222 61 359.915 61H437.275C465.324 61 482.022 92.2961 466.404 115.595L251.765 435.783C245.253 445.496 234.329 451.324 222.636 451.324H145.276C117.227 451.324 100.529 420.028 116.147 396.729L175.232 308.589L45.9887 115.58C30.3865 92.2802 47.0861 61 75.1273 61H152.497C164.197 61 175.126 66.8348 181.636 76.5563L237.503 159.988L237.545 160.05C239.532 164.093 240.037 166.351 238.357 172.122C236.884 175.293 234.347 177.697 231.863 179.279C229.369 180.868 226.158 182.121 222.735 182.183ZM359.915 91.4941C358.39 91.4941 356.965 92.2543 356.116 93.5213L141.477 413.709C139.439 416.748 141.617 420.83 145.276 420.83H222.636C224.161 420.83 225.586 420.07 226.435 418.803L441.074 98.6151C443.112 95.5762 440.934 91.4941 437.275 91.4941H359.915Z" fill="white"/>
<path d="M238.179 159.627C238.165 159.605 238.15 159.583 238.135 159.562L236.871 160.414C236.884 160.433 236.897 160.453 236.91 160.472L238.179 159.627ZM211.396 177.175C211.409 177.195 211.422 177.215 211.435 177.234L212.701 176.384C212.689 176.366 212.677 176.348 212.665 176.331L211.396 177.175ZM212.068 176.809L210.801 177.657L210.873 177.765L210.962 177.859L212.068 176.809ZM222.735 182.183L222.655 183.705L222.709 183.708L222.763 183.707L222.735 182.183ZM231.863 179.279L231.044 177.993L231.044 177.994L231.863 179.279ZM238.357 172.122L239.74 172.765L239.789 172.66L239.821 172.548L238.357 172.122ZM237.545 160.05L238.913 159.377L238.868 159.285L238.811 159.201L237.545 160.05ZM237.503 159.988L236.236 160.836L236.237 160.837L237.503 159.988ZM181.636 76.5563L182.903 75.7079L182.903 75.7079L181.636 76.5563ZM45.9887 115.58L47.2556 114.732L47.2556 114.732L45.9887 115.58ZM175.232 308.589L176.499 309.438L177.067 308.59L176.499 307.741L175.232 308.589ZM116.147 396.729L114.881 395.88L114.881 395.88L116.147 396.729ZM251.765 435.783L250.498 434.934L250.498 434.934L251.765 435.783ZM466.404 115.595L465.137 114.746L465.137 114.746L466.404 115.595ZM330.786 76.5416L329.52 75.6926L329.52 75.6926L330.786 76.5416ZM193.592 281.201L192.325 282.05L193.591 283.941L194.858 282.05L193.592 281.201ZM71.3267 98.6132L72.5936 97.7649L72.5936 97.7649L71.3267 98.6132ZM156.298 93.5232L157.565 92.6748L157.565 92.6748L156.298 93.5232ZM212.031 176.753L213.298 175.905L213.297 175.905L212.031 176.753ZM356.116 93.5213L354.849 92.6723L354.849 92.6723L356.116 93.5213ZM141.477 413.709L142.743 414.558L142.743 414.558L141.477 413.709ZM226.435 418.803L227.702 419.652L227.702 419.652L226.435 418.803ZM441.074 98.6151L442.341 99.4641L442.341 99.4641L441.074 98.6151ZM210.962 177.859C212.7 179.689 214.246 181.115 216.08 182.095C217.944 183.09 219.991 183.564 222.655 183.705L222.816 180.66C220.444 180.535 218.871 180.127 217.516 179.405C216.133 178.666 214.863 177.539 213.174 175.759L210.962 177.859ZM222.763 183.707C226.53 183.639 230.012 182.267 232.683 180.565L231.044 177.994C228.726 179.47 225.785 180.603 222.708 180.658L222.763 183.707ZM232.683 180.565C235.34 178.872 238.113 176.267 239.74 172.765L236.975 171.48C235.655 174.319 233.354 176.522 231.044 177.993L232.683 180.565ZM239.821 172.548C240.683 169.588 241.035 167.367 240.844 165.298C240.653 163.221 239.927 161.441 238.913 159.377L236.176 160.722C237.149 162.702 237.669 164.072 237.808 165.578C237.947 167.092 237.711 168.886 236.893 171.696L239.821 172.548ZM182.903 75.7079C176.11 65.5637 164.706 59.4753 152.497 59.4753V62.5247C163.688 62.5247 174.142 68.1058 180.369 77.4046L182.903 75.7079ZM152.497 59.4753H75.1273V62.5247H152.497V59.4753ZM75.1273 59.4753C45.8669 59.4753 28.4413 92.1155 44.7218 116.428L47.2556 114.732C32.3318 92.4449 48.3052 62.5247 75.1273 62.5247V59.4753ZM44.7218 116.428L173.965 309.438L176.499 307.741L47.2556 114.732L44.7218 116.428ZM173.966 307.74L114.881 395.88L117.414 397.578L176.499 309.438L173.966 307.74ZM114.881 395.88C98.5832 420.192 116.007 452.849 145.276 452.849V449.799C118.446 449.799 102.474 419.864 117.414 397.578L114.881 395.88ZM145.276 452.849H222.636V449.799H145.276V452.849ZM222.636 452.849C234.838 452.849 246.237 446.767 253.031 436.632L250.498 434.934C244.27 444.224 233.821 449.799 222.636 449.799V452.849ZM253.031 436.632L467.67 116.444L465.137 114.746L250.498 434.934L253.031 436.632ZM467.67 116.444C483.968 92.1321 466.544 59.4753 437.275 59.4753V62.5247C464.105 62.5247 480.077 92.4601 465.137 114.746L467.67 116.444ZM437.275 59.4753H359.915V62.5247H437.275V59.4753ZM359.915 59.4753C347.713 59.4753 336.314 65.5573 329.52 75.6926L332.053 77.3906C338.281 68.0999 348.73 62.5247 359.915 62.5247V59.4753ZM329.52 75.6926L192.325 280.352L194.858 282.05L332.053 77.3906L329.52 75.6926ZM194.859 280.353L72.5936 97.7649L70.0598 99.4616L192.325 282.05L194.859 280.353ZM72.5936 97.7649C71.2368 95.7388 72.689 93.0188 75.1273 93.0188V89.9694C70.2506 89.9694 67.3463 95.4094 70.0598 99.4616L72.5936 97.7649ZM75.1273 93.0188H152.497V89.9694H75.1273V93.0188ZM152.497 93.0188C153.514 93.0188 154.465 93.5261 155.031 94.3715L157.565 92.6748C156.433 90.9841 154.532 89.9694 152.497 89.9694V93.0188ZM357.382 94.3702C357.948 93.5256 358.898 93.0188 359.915 93.0188V89.9694C357.881 89.9694 355.982 90.983 354.849 92.6723L357.382 94.3702ZM142.743 414.558L357.382 94.3702L354.849 92.6723L140.21 412.86L142.743 414.558ZM145.276 419.305C142.837 419.305 141.385 416.584 142.743 414.558L140.21 412.86C137.494 416.912 140.398 422.355 145.276 422.355V419.305ZM222.636 419.305H145.276V422.355H222.636V419.305ZM225.169 417.954C224.603 418.799 223.653 419.305 222.636 419.305V422.355C224.669 422.355 226.569 421.341 227.702 419.652L225.169 417.954ZM439.808 97.7662L225.169 417.954L227.702 419.652L442.341 99.4641L439.808 97.7662ZM437.275 93.0188C439.714 93.0188 441.166 95.7402 439.808 97.7662L442.341 99.4641C445.057 95.4122 442.153 89.9694 437.275 89.9694V93.0188ZM359.915 93.0188H437.275V89.9694H359.915V93.0188ZM238.77 159.139L182.903 75.7079L180.369 77.4046L236.236 160.836L238.77 159.139ZM155.031 94.3715L210.764 177.601L213.297 175.905L157.565 92.6748L155.031 94.3715ZM238.811 159.201L238.77 159.139L236.237 160.837L236.278 160.898L238.811 159.201ZM210.763 177.601L210.801 177.657L213.335 175.961L213.298 175.905L210.763 177.601Z" fill="#6622E3" mask="url(#path-1-outside-1_58_55)"/>
</svg>
