<svg width="286" height="258" viewBox="0 0 286 258" fill="none" xmlns="http://www.w3.org/2000/svg">
<mask id="path-1-outside-1_58_51" maskUnits="userSpaceOnUse" x="-1" y="0" width="287" height="258" fill="black">
<rect fill="white" x="-1" width="287" height="258"/>
<path fill-rule="evenodd" clip-rule="evenodd" d="M120.85 80.4796C117.547 80.3047 116.101 79.3227 113.853 76.9552L113.829 76.9184L77.2757 22.3308C76.7188 21.4991 75.7838 21 74.7829 21H24.0388C21.6399 21 20.2113 23.6759 21.5461 25.6692L101.736 145.422L191.717 11.1932C195.987 4.82277 203.152 1 210.821 1H261.559C279.955 1 290.907 21.526 280.663 36.8068L139.889 246.807C135.619 253.177 128.454 257 120.784 257H70.0468C51.6503 257 40.6987 236.474 50.9422 221.193L89.694 163.385L4.92776 36.7972C-5.30515 21.5156 5.6475 1 24.0388 1H74.7829C82.4564 1 89.6244 4.82682 93.8939 11.2028L130.536 65.9227L130.563 65.9631C131.866 68.615 132.197 70.0961 131.096 73.8812C130.129 75.9608 128.465 77.5377 126.836 78.5754C125.2 79.6176 123.094 80.4389 120.85 80.4796ZM210.821 21C209.821 21 208.886 21.4986 208.329 22.3296L67.5549 232.33C66.2188 234.323 67.6473 237 70.0468 237H120.784C121.785 237 122.719 236.501 123.276 235.67L264.051 25.6705C265.387 23.6773 263.958 21 261.559 21H210.821Z"/>
</mask>
<path fill-rule="evenodd" clip-rule="evenodd" d="M120.85 80.4796C117.547 80.3047 116.101 79.3227 113.853 76.9552L113.829 76.9184L77.2757 22.3308C76.7188 21.4991 75.7838 21 74.7829 21H24.0388C21.6399 21 20.2113 23.6759 21.5461 25.6692L101.736 145.422L191.717 11.1932C195.987 4.82277 203.152 1 210.821 1H261.559C279.955 1 290.907 21.526 280.663 36.8068L139.889 246.807C135.619 253.177 128.454 257 120.784 257H70.0468C51.6503 257 40.6987 236.474 50.9422 221.193L89.694 163.385L4.92776 36.7972C-5.30515 21.5156 5.6475 1 24.0388 1H74.7829C82.4564 1 89.6244 4.82682 93.8939 11.2028L130.536 65.9227L130.563 65.9631C131.866 68.615 132.197 70.0961 131.096 73.8812C130.129 75.9608 128.465 77.5377 126.836 78.5754C125.2 79.6176 123.094 80.4389 120.85 80.4796ZM210.821 21C209.821 21 208.886 21.4986 208.329 22.3296L67.5549 232.33C66.2188 234.323 67.6473 237 70.0468 237H120.784C121.785 237 122.719 236.501 123.276 235.67L264.051 25.6705C265.387 23.6773 263.958 21 261.559 21H210.821Z" fill="white"/>
<path d="M130.979 65.6859C130.969 65.6716 130.96 65.6574 130.95 65.6431L130.121 66.2022C130.13 66.2149 130.138 66.2276 130.147 66.2403L130.979 65.6859ZM113.412 77.1953C113.421 77.2084 113.43 77.2214 113.438 77.2341L114.268 76.6762C114.261 76.6646 114.253 76.653 114.245 76.6416L113.412 77.1953ZM113.853 76.9552L113.022 77.5111L113.07 77.5819L113.128 77.6437L113.853 76.9552ZM120.85 80.4796L120.797 81.4782L120.832 81.4801L120.868 81.4795L120.85 80.4796ZM126.836 78.5754L126.299 77.732L126.299 77.732L126.836 78.5754ZM131.096 73.8812L132.003 74.3027L132.035 74.2337L132.056 74.1607L131.096 73.8812ZM130.563 65.9631L131.46 65.5221L131.431 65.462L131.393 65.4064L130.563 65.9631ZM130.536 65.9227L129.705 66.4791L129.705 66.4794L130.536 65.9227ZM93.8939 11.2028L94.7249 10.6464L94.7249 10.6464L93.8939 11.2028ZM4.92776 36.7972L5.75867 36.2408L5.75867 36.2408L4.92776 36.7972ZM89.694 163.385L90.5247 163.942L90.8977 163.386L90.5249 162.829L89.694 163.385ZM50.9422 221.193L50.1116 220.636L50.1116 220.636L50.9422 221.193ZM139.889 246.807L139.058 246.25L139.058 246.25L139.889 246.807ZM280.663 36.8068L279.833 36.25L279.833 36.25L280.663 36.8068ZM191.717 11.1932L190.886 10.6364L190.886 10.6364L191.717 11.1932ZM101.736 145.422L100.905 145.979L101.735 147.219L102.566 145.979L101.736 145.422ZM21.5461 25.6692L22.377 25.1128L22.377 25.1128L21.5461 25.6692ZM77.2757 22.3308L78.1066 21.7744L78.1066 21.7744L77.2757 22.3308ZM113.829 76.9184L114.66 76.3625L114.66 76.362L113.829 76.9184ZM208.329 22.3296L207.499 21.7727L207.499 21.7727L208.329 22.3296ZM67.5549 232.33L68.3856 232.886L68.3856 232.886L67.5549 232.33ZM123.276 235.67L124.107 236.227L124.107 236.227L123.276 235.67ZM264.051 25.6705L264.881 26.2273L264.881 26.2273L264.051 25.6705ZM113.128 77.6437C114.268 78.844 115.282 79.7795 116.485 80.4218C117.708 81.0744 119.05 81.3857 120.797 81.4782L120.903 79.481C119.347 79.3986 118.315 79.1315 117.427 78.6574C116.519 78.173 115.687 77.4338 114.579 76.2667L113.128 77.6437ZM120.868 81.4795C123.339 81.4347 125.622 80.5346 127.374 79.4188L126.299 77.732C124.779 78.7005 122.85 79.4432 120.832 79.4798L120.868 81.4795ZM127.374 79.4188C129.117 78.3084 130.935 76.5996 132.003 74.3027L130.189 73.4598C129.323 75.3221 127.814 76.7669 126.299 77.732L127.374 79.4188ZM132.056 74.1607C132.621 72.2189 132.852 70.7624 132.727 69.4056C132.601 68.043 132.125 66.8756 131.46 65.5221L129.665 66.4041C130.303 67.7025 130.644 68.6015 130.735 69.5888C130.827 70.5818 130.672 71.7584 130.136 73.6018L132.056 74.1607ZM94.7249 10.6464C90.2697 3.9932 82.79 0 74.7829 0V2C82.1228 2 88.9792 5.66044 93.063 11.7592L94.7249 10.6464ZM74.7829 0H24.0388V2H74.7829V0ZM24.0388 0C4.84788 0 -6.58097 21.4076 4.09684 37.3536L5.75867 36.2408C-4.02933 21.6236 6.44712 2 24.0388 2V0ZM4.09684 37.3536L88.8631 163.942L90.5249 162.829L5.75867 36.2408L4.09684 37.3536ZM88.8634 162.828L50.1116 220.636L51.7729 221.75L90.5247 163.942L88.8634 162.828ZM50.1116 220.636C39.4227 236.582 50.8504 258 70.0468 258V256C52.4501 256 41.9747 236.366 51.7729 221.75L50.1116 220.636ZM70.0468 258H120.784V256H70.0468V258ZM120.784 258C128.787 258 136.264 254.011 140.72 247.364L139.058 246.25C134.974 252.343 128.12 256 120.784 256V258ZM140.72 247.364L281.494 37.3637L279.833 36.25L139.058 246.25L140.72 247.364ZM281.494 37.3637C292.183 21.4185 280.755 0 261.559 0V2C279.155 2 289.631 21.6336 279.833 36.25L281.494 37.3637ZM261.559 0H210.821V2H261.559V0ZM210.821 0C202.818 0 195.342 3.98898 190.886 10.6364L192.547 11.75C196.632 5.65657 203.485 2 210.821 2V0ZM190.886 10.6364L100.905 144.866L102.566 145.979L192.547 11.75L190.886 10.6364ZM102.566 144.866L22.377 25.1128L20.7151 26.2256L100.905 145.979L102.566 144.866ZM22.377 25.1128C21.4872 23.784 22.4396 22 24.0388 22V20C20.8403 20 18.9355 23.5679 20.7152 26.2256L22.377 25.1128ZM24.0388 22H74.7829V20H24.0388V22ZM74.7829 22C75.4501 22 76.0735 22.3328 76.4447 22.8872L78.1066 21.7744C77.364 20.6655 76.1174 20 74.7829 20V22ZM209.16 22.8864C209.531 22.3324 210.154 22 210.821 22V20C209.487 20 208.241 20.6648 207.499 21.7727L209.16 22.8864ZM68.3856 232.886L209.16 22.8864L207.499 21.7727L66.7243 231.773L68.3856 232.886ZM70.0468 236C68.4471 236 67.4948 234.215 68.3856 232.886L66.7243 231.773C64.9428 234.43 66.8474 238 70.0468 238V236ZM120.784 236H70.0468V238H120.784V236ZM122.446 235.114C122.074 235.668 121.451 236 120.784 236V238C122.118 238 123.364 237.335 124.107 236.227L122.446 235.114ZM263.22 25.1136L122.446 235.114L124.107 236.227L264.881 26.2273L263.22 25.1136ZM261.559 22C263.158 22 264.111 23.7849 263.22 25.1136L264.881 26.2273C266.663 23.5697 264.758 20 261.559 20V22ZM210.821 22H261.559V20H210.821V22ZM131.366 65.3663L94.7249 10.6464L93.063 11.7592L129.705 66.4791L131.366 65.3663ZM76.4447 22.8872L112.998 77.4748L114.66 76.362L78.1066 21.7744L76.4447 22.8872ZM131.393 65.4064L131.366 65.3659L129.705 66.4794L129.732 66.5198L131.393 65.4064ZM112.998 77.4744L113.022 77.5111L114.685 76.3992L114.66 76.3625L112.998 77.4744Z" fill="#6622E3" mask="url(#path-1-outside-1_58_51)"/>
</svg>
